<?xml version="1.0" encoding="UTF-8" standalone="no"?>
<!-- Created with Inkscape (http://www.inkscape.org/) -->

<svg
   version="1.1"
   id="svg1"
   width="1080"
   height="1080"
   viewBox="0 0 1080 1080"
   sodipodi:docname="Untitled design.pdf"
   xmlns:inkscape="http://www.inkscape.org/namespaces/inkscape"
   xmlns:sodipodi="http://sodipodi.sourceforge.net/DTD/sodipodi-0.dtd"
   xmlns="http://www.w3.org/2000/svg"
   xmlns:svg="http://www.w3.org/2000/svg">
  <defs
     id="defs1">
    <linearGradient
       x1="0.12958999"
       y1="0.12039"
       x2="0.79639"
       y2="0.78200996"
       gradientUnits="userSpaceOnUse"
       gradientTransform="matrix(189.38282,0,0,189.8052,0.14500026,-2.5576926)"
       spreadMethod="pad"
       id="linearGradient6">
      <stop
         style="stop-opacity:1;stop-color:#387eb8"
         offset="0"
         id="stop5" />
      <stop
         style="stop-opacity:1;stop-color:#366994"
         offset="1"
         id="stop6" />
    </linearGradient>
    <clipPath
       clipPathUnits="userSpaceOnUse"
       id="clipPath6">
      <path
         d="M 78.722656,87.497803 H 3297.4727 V 3287.4978 H 78.722656 Z"
         transform="matrix(0.07965727,0,0,0.07968749,-6.2708322,-6.9724804)"
         clip-rule="evenodd"
         id="path6" />
    </clipPath>
    <linearGradient
       x1="0.19128001"
       y1="0.20579"
       x2="0.90741998"
       y2="0.88428998"
       gradientUnits="userSpaceOnUse"
       gradientTransform="matrix(189.38279,0,0,189.80518,66.144227,61.691141)"
       spreadMethod="pad"
       id="linearGradient8">
      <stop
         style="stop-opacity:1;stop-color:#ffe052"
         offset="0"
         id="stop7" />
      <stop
         style="stop-opacity:1;stop-color:#ffc331"
         offset="1"
         id="stop8" />
    </linearGradient>
    <clipPath
       clipPathUnits="userSpaceOnUse"
       id="clipPath8">
      <path
         d="M 78.722656,87.497803 H 3297.4727 V 3287.4978 H 78.722656 Z"
         transform="matrix(0.07965727,0,0,0.07968749,-6.2708322,-6.9724804)"
         clip-rule="evenodd"
         id="path8" />
    </clipPath>
    <clipPath
       clipPathUnits="userSpaceOnUse"
       id="clipPath10">
      <path
         d="m 2524.0081,1177.1852 h 678.1157 v 1021.8749 h -678.1157 z"
         transform="matrix(0.72553983,0,0,0.72318055,966.73168,16.682588)"
         clip-rule="evenodd"
         id="path10" />
    </clipPath>
    <clipPath
       clipPathUnits="userSpaceOnUse"
       id="clipPath12">
      <path
         d="m 195.21498,1177.1964 h 584.375 v 1021.8524 h -584.375 z"
         transform="matrix(0.8949732,0,0,0.89543272,931.28779,-274.10018)"
         clip-rule="evenodd"
         id="path12" />
    </clipPath>
  </defs>
  <sodipodi:namedview
     id="namedview1"
     pagecolor="#ffffff"
     bordercolor="#000000"
     borderopacity="0.25"
     inkscape:showpageshadow="2"
     inkscape:pageopacity="0.0"
     inkscape:pagecheckerboard="0"
     inkscape:deskcolor="#d1d1d1">
    <inkscape:page
       x="0"
       y="0"
       inkscape:label="1"
       id="page1"
       width="1080"
       height="1080"
       margin="0"
       bleed="0" />
  </sodipodi:namedview>
  <g
     id="g1"
     inkscape:groupmode="layer"
     inkscape:label="1">
    <path
       id="path5"
       d="m 126.916,0.072 c -64.832,0 -60.783996,28.115 -60.783996,28.115 l 0.072,29.128002 h 61.868006 v 8.745003 H 41.631003 c 0,0 -41.486001,-4.705005 -41.486001,60.709995 0,65.417 36.21,63.097 36.21,63.097 h 21.61 v -30.356 c 0,0 -1.165001,-36.21 35.632,-36.21 H 154.959 c 0,0 34.47499,0.557 34.47499,-33.318998 V 33.970001 c 0,0 5.23601,-33.898001 -62.51799,-33.898001 z M 92.802002,19.66 c 0.364616,-3.28e-4 0.728363,0.01723 1.091248,0.05269 0.362876,0.03545 0.723136,0.08863 1.080795,0.159517 0.357658,0.07089 0.710975,0.159159 1.059944,0.264803 0.348976,0.105646 0.691917,0.228157 1.028831,0.367536 0.336922,0.13938 0.666184,0.294955 0.987801,0.466723 0.321617,0.171768 0.634033,0.358902 0.937241,0.561399 0.303207,0.2025 0.595749,0.419388 0.877624,0.650664 0.281874,0.231275 0.551724,0.475822 0.809544,0.73364 0.25782,0.25782 0.50237,0.527668 0.73364,0.809544 0.23128,0.281874 0.44816,0.574413 0.65066,0.877623 0.2025,0.303209 0.38963,0.615621 0.5614,0.93724 0.17177,0.321615 0.32734,0.650883 0.46673,0.987803 0.13938,0.336919 0.26189,0.679865 0.36753,1.028835 0.10565,0.34897 0.19391,0.702284 0.26481,1.059938 0.0709,0.357653 0.12406,0.717923 0.15952,1.080807 0.0354,0.362883 0.053,0.726629 0.0527,1.091242 3.3e-4,0.364611 -0.0172,0.728359 -0.0527,1.091244 -0.0354,0.36288 -0.0886,0.723148 -0.15952,1.080803 -0.0709,0.357654 -0.15915,0.710968 -0.2648,1.05994 -0.10566,0.348968 -0.22817,0.691914 -0.36754,1.028831 -0.13938,0.336922 -0.29495,0.666191 -0.46672,0.987805 -0.17177,0.321617 -0.3589,0.634029 -0.5614,0.93724 -0.2025,0.303212 -0.41939,0.595753 -0.65067,0.877625 -0.23127,0.281876 -0.47581,0.551723 -0.73363,0.80954 -0.25782,0.25782 -0.52767,0.502369 -0.809544,0.733642 -0.281868,0.231274 -0.574409,0.448162 -0.877617,0.650662 -0.303215,0.202499 -0.615631,0.389633 -0.937248,0.561397 -0.321617,0.171772 -0.650879,0.327347 -0.987801,0.466725 -0.336914,0.139377 -0.679855,0.261894 -1.028831,0.367542 -0.348961,0.105644 -0.702278,0.193912 -1.059937,0.264801 -0.357658,0.07089 -0.717926,0.124065 -1.08081,0.159515 -0.362877,0.03546 -0.726624,0.05302 -1.09124,0.05269 -0.364601,3.32e-4 -0.728348,-0.01723 -1.091225,-0.05268 -0.362884,-0.03545 -0.723152,-0.08862 -1.08081,-0.159511 -0.357669,-0.0709 -0.710978,-0.159166 -1.059947,-0.26481 C 89.221054,41.337357 88.878113,41.214844 88.541191,41.075466 88.204269,40.936085 87.875,40.78051 87.553391,40.608746 87.231766,40.436974 86.91935,40.24984 86.616142,40.04734 86.312935,39.844841 86.020393,39.627953 85.738518,39.396675 85.456635,39.165401 85.18679,38.920853 84.92897,38.663033 84.67115,38.405212 84.426598,38.135365 84.195328,37.853493 83.96405,37.571617 83.747162,37.279076 83.54467,36.975868 83.342171,36.672657 83.155037,36.360245 82.983269,36.038628 82.811501,35.71701 82.65593,35.387741 82.516556,35.050823 82.377174,34.713905 82.254662,34.37096 82.149017,34.021988 c -0.105644,-0.348972 -0.193916,-0.702286 -0.264808,-1.05994 -0.07089,-0.357655 -0.12407,-0.717923 -0.159523,-1.080805 -0.03545,-0.362883 -0.05301,-0.726631 -0.05268,-1.091242 -3.28e-4,-0.364611 0.01723,-0.728359 0.05269,-1.091242 0.03545,-0.362883 0.08862,-0.723152 0.159516,-1.080805 0.07089,-0.357654 0.159164,-0.710968 0.264808,-1.059938 0.105645,-0.348971 0.22815,-0.691916 0.367531,-1.028835 0.139382,-0.33692 0.294953,-0.666188 0.466721,-0.987805 0.171768,-0.321617 0.358902,-0.634029 0.561401,-0.937239 0.202492,-0.303209 0.41938,-0.59575 0.650665,-0.877624 0.23127,-0.281874 0.475815,-0.55172 0.733635,-0.809542 0.25782,-0.25782 0.527665,-0.502367 0.809548,-0.733642 0.281875,-0.231276 0.574417,-0.448162 0.877624,-0.65066 0.303208,-0.202497 0.615624,-0.389631 0.937249,-0.561401 0.321609,-0.171768 0.650878,-0.327343 0.9878,-0.466723 0.336922,-0.139379 0.679863,-0.261892 1.028839,-0.367538 0.348961,-0.105644 0.702271,-0.193913 1.059929,-0.264803 0.357658,-0.07089 0.717926,-0.124064 1.080811,-0.159517 0.362884,-0.03545 0.726631,-0.05301 1.091232,-0.05269 z"
       style="fill:url(#linearGradient6);fill-opacity:1;fill-rule:nonzero;stroke:none"
       transform="matrix(4.0172099,0,0,4.0156865,25.191249,27.999322)"
       clip-path="url(#clipPath6)" />
    <path
       id="path7"
       d="m 128.757,254.12601 c 64.832,0 60.784,-28.11501 60.784,-28.11501 l -0.072,-29.127 h -61.86899 v -8.74499 h 86.441 c 0,0 41.48601,4.705 41.48601,-60.71201 0,-65.415998 -36.20999,-63.095999 -36.20999,-63.095999 h -21.61 v 30.355004 c 0,0 1.16499,36.209995 -35.63201,36.209995 h -61.362 c 0,0 -34.474996,-0.55701 -34.474996,33.32 v 56.013 c 0,0 -5.235,33.89701 62.517996,33.89701 h 9.9e-4 z m 34.114,-19.586 c -0.36461,3.2e-4 -0.72836,-0.0172 -1.09125,-0.0527 -0.36288,-0.0355 -0.72316,-0.0886 -1.08081,-0.15952 -0.35765,-0.0709 -0.71096,-0.15916 -1.05993,-0.2648 -0.34899,-0.10563 -0.69193,-0.22815 -1.02886,-0.36753 -0.33693,-0.13938 -0.66618,-0.29496 -0.98779,-0.46673 -0.32164,-0.17176 -0.63405,-0.3589 -0.93726,-0.5614 -0.3032,-0.2025 -0.59575,-0.41938 -0.87762,-0.65066 -0.28188,-0.23128 -0.55171,-0.47582 -0.80953,-0.73363 -0.25781,-0.25781 -0.50236,-0.52766 -0.73364,-0.80954 -0.23128,-0.28187 -0.44816,-0.57443 -0.65066,-0.87764 -0.2025,-0.30321 -0.38964,-0.61561 -0.5614,-0.93722 -0.17177,-0.32161 -0.32735,-0.65087 -0.46672,-0.9878 -0.13939,-0.33693 -0.26191,-0.67987 -0.36754,-1.02885 -0.10564,-0.34899 -0.19391,-0.7023 -0.26479,-1.05995 -0.0709,-0.35765 -0.12407,-0.71791 -0.15953,-1.08081 -0.0354,-0.36289 -0.053,-0.72663 -0.0527,-1.09124 -3.7e-4,-0.36464 0.0172,-0.72841 0.0526,-1.09132 0.0354,-0.3629 0.0886,-0.72319 0.15945,-1.08087 0.0709,-0.35768 0.15911,-0.71103 0.26473,-1.06003 0.10562,-0.349 0.22812,-0.69197 0.36749,-1.0289 0.13937,-0.33694 0.29494,-0.66624 0.46669,-0.98792 0.17177,-0.32164 0.35889,-0.63407 0.56139,-0.93731 0.20248,-0.30324 0.41937,-0.59581 0.65065,-0.87772 0.23127,-0.2819 0.47583,-0.55177 0.73365,-0.80961 0.25783,-0.25786 0.52767,-0.50243 0.80954,-0.73374 0.2819,-0.23129 0.57445,-0.44819 0.87766,-0.65071 0.30321,-0.20253 0.61563,-0.38968 0.93727,-0.56146 0.32164,-0.17179 0.65093,-0.32738 0.98787,-0.46677 0.33693,-0.1394 0.67989,-0.26193 1.02888,-0.3676 0.34899,-0.10565 0.70231,-0.19392 1.05999,-0.26481 0.35768,-0.0709 0.71795,-0.12407 1.08085,-0.15955 0.36292,-0.0354 0.72669,-0.053 1.09131,-0.0527 0.36461,-3.2e-4 0.72835,0.0172 1.09123,0.0527 0.36289,0.0354 0.72316,0.0886 1.08081,0.1595 0.35766,0.0709 0.71097,0.15916 1.05994,0.2648 0.34897,0.10563 0.69191,0.22815 1.02884,0.36752 0.33693,0.13937 0.6662,0.29495 0.98781,0.46674 0.32161,0.17176 0.63402,0.35888 0.93722,0.56138 0.30321,0.2025 0.59577,0.41939 0.87764,0.65067 0.28188,0.23127 0.55172,0.47583 0.80954,0.73364 0.25783,0.25783 0.50237,0.52768 0.73365,0.80955 0.23127,0.28188 0.44816,0.57441 0.65066,0.87761 0.2025,0.30321 0.38963,0.61564 0.5614,0.93726 0.17176,0.32161 0.32732,0.65088 0.46671,0.98779 0.13939,0.33693 0.26192,0.67989 0.36755,1.02886 0.10564,0.34895 0.19391,0.70227 0.26479,1.05992 0.0709,0.35765 0.12407,0.71792 0.15954,1.08081 0.0354,0.36288 0.053,0.72664 0.0527,1.09126 3.2e-4,0.36461 -0.0172,0.72836 -0.0527,1.09123 -0.0354,0.3629 -0.0886,0.72318 -0.15951,1.08083 -0.0709,0.35765 -0.15915,0.71095 -0.26479,1.05994 -0.10566,0.34896 -0.22818,0.69191 -0.36757,1.02882 -0.13937,0.33693 -0.29493,0.6662 -0.4667,0.98781 -0.17177,0.32162 -0.35892,0.63405 -0.56142,0.93725 -0.2025,0.30321 -0.41939,0.59574 -0.65066,0.87761 -0.23128,0.28188 -0.47582,0.55173 -0.73365,0.80954 -0.25781,0.25783 -0.52765,0.50238 -0.80952,0.73366 -0.28188,0.23128 -0.57443,0.44815 -0.87764,0.65065 -0.30321,0.2025 -0.61563,0.38963 -0.93724,0.5614 -0.32161,0.17177 -0.65088,0.32733 -0.98781,0.46671 -0.33691,0.13939 -0.67986,0.2619 -1.02884,0.36754 -0.34897,0.10566 -0.70228,0.19394 -1.05994,0.26481 -0.35765,0.0709 -0.71792,0.12407 -1.08079,0.15953 -0.36289,0.0354 -0.72664,0.053 -1.09125,0.0527 v 9.9e-4 z"
       style="fill:url(#linearGradient8);fill-opacity:1;fill-rule:nonzero;stroke:none"
       transform="matrix(4.0172099,0,0,4.0156865,25.191249,27.999322)"
       clip-path="url(#clipPath8)" />
    <path
       id="path9"
       d="m 3038.03,1606.9 c -58.27,1.74 -107.8901,-20.16 -147.03,-52.23 -39.1499,-32.06 -75.96,-85.55 -87.8501,-140.16 -11.8999,-54.62 -1.8298,-127.34 16.4702,-187.55 18.2998,-60.22 56.0198,-113.9099 93.3399,-173.73 37.32,-59.82998 94.56,-184.89998 130.56,-185.22902 35.99,-0.32898 95.68,130.84301 129.3301,183.24902 33.6599,52.41 45.76,74.9399 72.5999,131.2 26.85,56.27 45.05,129.55 44.54,182.7 -0.51,53.1501 -24.71,100.44 -47.5901,136.22 -22.8699,35.78 -55.6199,60.86 -89.6799,78.45 -34.0601,17.59 -56.43,25.35 -114.69,27.08 z m -88.51,-59.2199 c 20.5901,21.25 44.73,44.6799 86.0701,44.6899 41.3398,0.02 71.0598,-17.74 107.0698,-56.45 36,-38.71 42.4402,-85.64 43.0501,-128.41 0.6101,-42.77 -21.3899,-92.49 -39.3899,-128.24 -18.01,-35.74 -55.8301,-86.89 -68.6402,-86.24 -12.8098,0.6599 -20.5898,36.99 -30.1999,66.5 -9.6001,29.51 -17.69,54.95 -27.45,86.87 -9.76,31.9101 -19.83,59.22 -27.4499,82.9101 -7.6301,23.6899 -16.1702,65.1499 -25.6301,65.1499 -9.45,0 -22.5701,-38.83 -31.1099,-65.1499 -8.5401,-26.3201 -28.98,-57.25 -32.9402,-51.3301 -3.97,5.92 1.3801,58.5801 9.1501,86.87 7.7701,28.28 16.8799,61.57 37.47,82.8301 z"
       style="fill:#347ab4;fill-opacity:1;fill-rule:evenodd;stroke:none"
       transform="matrix(0.44105089,0,0,0.44248976,-426.37787,-7.3818479)"
       clip-path="url(#clipPath10)" />
    <path
       id="path11"
       d="m 1386.85,1142.85 c 15.7001,15.56 20.43,6.07 111.22,4.56 90.78,-1.52 121.35,-15.39 130.3601,13.66 9.0199,29.04 -91.0901,162.82 -149.2001,251.7 -58.12,88.89 -169.59,269.7999 -199.5,281.61 -29.91,11.82 13.42,-148.75 20.05,-210.71 6.64,-61.97 37.99,-149.44 19.76,-161.07 -18.2399,-11.64 -73.2399,1.36 -110.92,0.15 -37.6801,-1.22 -91.24,7.36 -100.74,-12.76 -9.49,-20.11 18.74,-62.74 43.76,-107.9299 25.02,-45.1901 71.7901,-110.8201 106.36,-163.2001 34.57,-52.37398 72.58,-107.96303 107.12,-151.05202 34.54,-43.08899 86.2,-113.17401 100.13,-107.48095 13.9301,5.69195 -0.26,96.01995 -16.5601,141.63897 -16.3099,45.61902 -28.5699,85.014 -44.8299,132.074 -16.25,47.06 -32.71,73.25 -17.01,88.81 z"
       style="fill:#ffca1d;fill-opacity:1;fill-rule:evenodd;stroke:none"
       transform="matrix(0.35755259,0,0,0.3573691,-332.98436,97.954963)"
       clip-path="url(#clipPath12)" />
  </g>
</svg>
