<?xml version="1.0" encoding="UTF-8" standalone="no"?>
<!-- Created with Inkscape (http://www.inkscape.org/) -->

<svg
   version="1.1"
   id="svg1"
   width="5000"
   height="1000"
   viewBox="0 0 5000 1000"
   xmlns="http://www.w3.org/2000/svg"
   xmlns:svg="http://www.w3.org/2000/svg">
  <defs
     id="defs1">
    <linearGradient
       x1="0.12958999"
       y1="0.12039"
       x2="0.79639"
       y2="0.78200996"
       gradientUnits="userSpaceOnUse"
       gradientTransform="matrix(189.3828,0,0,189.80518,0.14500002,-2.7012217)"
       spreadMethod="pad"
       id="linearGradient6">
      <stop
         style="stop-opacity:1;stop-color:#387eb8"
         offset="0"
         id="stop5" />
      <stop
         style="stop-opacity:1;stop-color:#366994"
         offset="1"
         id="stop6" />
    </linearGradient>
    <clipPath
       clipPathUnits="userSpaceOnUse"
       id="clipPath6">
      <path
         d="M 79.31472,44.613861 H 3132.4397 V 3078.9889 H 79.31472 Z"
         transform="matrix(0.08397907,0,0,0.08403707,-6.6607767,-3.7492183)"
         clip-rule="evenodd"
         id="path6" />
    </clipPath>
    <linearGradient
       x1="0.19128001"
       y1="0.20579"
       x2="0.90741998"
       y2="0.88428998"
       gradientUnits="userSpaceOnUse"
       gradientTransform="matrix(189.38278,0,0,189.80518,66.144227,61.547615)"
       spreadMethod="pad"
       id="linearGradient8">
      <stop
         style="stop-opacity:1;stop-color:#ffe052"
         offset="0"
         id="stop7" />
      <stop
         style="stop-opacity:1;stop-color:#ffc331"
         offset="1"
         id="stop8" />
    </linearGradient>
    <clipPath
       clipPathUnits="userSpaceOnUse"
       id="clipPath8">
      <path
         d="M 79.31472,44.613861 H 3132.4397 V 3078.9889 H 79.31472 Z"
         transform="matrix(0.08397907,0,0,0.08403707,-6.6607767,-3.7492183)"
         clip-rule="evenodd"
         id="path8" />
    </clipPath>
    <clipPath
       clipPathUnits="userSpaceOnUse"
       id="clipPath10">
      <path
         d="m 2399.0977,1078.3922 h 643.7498 v 968.7174 h -643.7498 z"
         transform="matrix(0.76427184,0,0,0.76286447,964.43735,45.332886)"
         clip-rule="evenodd"
         id="path10" />
    </clipPath>
    <clipPath
       clipPathUnits="userSpaceOnUse"
       id="clipPath12">
      <path
         d="m 189.82959,1078.376 h 553.12268 v 968.7497 H 189.82959 Z"
         transform="matrix(0.94554066,0,0,0.94451619,926.50841,-238.54349)"
         clip-rule="evenodd"
         id="path12" />
    </clipPath>
  </defs>
  <g
     id="g1">
    <path
       id="path5"
       d="m 126.916,0.072 c -64.832,0 -60.783996,28.115 -60.783996,28.115 l 0.072,29.128002 h 61.868006 v 8.745003 H 41.631003 c 0,0 -41.486001,-4.705005 -41.486001,60.709995 0,65.417 36.21,63.097 36.21,63.097 h 21.61 v -30.356 c 0,0 -1.165001,-36.21 35.632,-36.21 H 154.959 c 0,0 34.47499,0.557 34.47499,-33.318998 V 33.970001 c 0,0 5.23601,-33.898001 -62.51799,-33.898001 z M 92.802002,19.66 c 0.364616,-3.28e-4 0.728363,0.01723 1.091248,0.05269 0.362876,0.03545 0.723136,0.08863 1.080795,0.159517 0.357658,0.07089 0.710975,0.159159 1.059944,0.264803 0.348976,0.105646 0.691917,0.228157 1.028831,0.367536 0.336922,0.13938 0.666184,0.294955 0.987801,0.466723 0.321617,0.171768 0.634033,0.358902 0.937241,0.561399 0.303207,0.2025 0.595749,0.419388 0.877624,0.650664 0.281874,0.231275 0.551724,0.475822 0.809544,0.73364 0.25782,0.25782 0.50237,0.527668 0.73364,0.809544 0.23128,0.281874 0.44816,0.574413 0.65066,0.877623 0.2025,0.303209 0.38963,0.615621 0.5614,0.93724 0.17177,0.321615 0.32734,0.650883 0.46673,0.987803 0.13938,0.336919 0.26189,0.679865 0.36753,1.028835 0.10565,0.34897 0.19391,0.702284 0.26481,1.059938 0.0709,0.357653 0.12406,0.717923 0.15952,1.080807 0.0354,0.362883 0.053,0.726629 0.0527,1.091242 3.3e-4,0.364611 -0.0172,0.728359 -0.0527,1.091244 -0.0354,0.36288 -0.0886,0.723148 -0.15952,1.080803 -0.0709,0.357654 -0.15915,0.710968 -0.2648,1.05994 -0.10566,0.348968 -0.22817,0.691914 -0.36754,1.028831 -0.13938,0.336922 -0.29495,0.666191 -0.46672,0.987805 -0.17177,0.321617 -0.3589,0.634029 -0.5614,0.93724 -0.2025,0.303212 -0.41939,0.595753 -0.65067,0.877625 -0.23127,0.281876 -0.47581,0.551723 -0.73363,0.80954 -0.25782,0.25782 -0.52767,0.502369 -0.809544,0.733642 -0.281868,0.231274 -0.574409,0.448162 -0.877617,0.650662 -0.303215,0.202499 -0.615631,0.389633 -0.937248,0.561397 -0.321617,0.171772 -0.650879,0.327347 -0.987801,0.466725 -0.336914,0.139377 -0.679855,0.261894 -1.028831,0.367542 -0.348961,0.105644 -0.702278,0.193912 -1.059937,0.264801 -0.357658,0.07089 -0.717926,0.124065 -1.08081,0.159515 -0.362877,0.03546 -0.726624,0.05302 -1.09124,0.05269 -0.364601,3.32e-4 -0.728348,-0.01723 -1.091225,-0.05268 -0.362884,-0.03545 -0.723152,-0.08862 -1.08081,-0.159511 -0.357669,-0.0709 -0.710978,-0.159166 -1.059947,-0.26481 C 89.221054,41.337357 88.878113,41.214844 88.541191,41.075466 88.204269,40.936085 87.875,40.78051 87.553391,40.608746 87.231766,40.436974 86.91935,40.24984 86.616142,40.04734 86.312935,39.844841 86.020393,39.627953 85.738518,39.396675 85.456635,39.165401 85.18679,38.920853 84.92897,38.663033 84.67115,38.405212 84.426598,38.135365 84.195328,37.853493 83.96405,37.571617 83.747162,37.279076 83.54467,36.975868 83.342171,36.672657 83.155037,36.360245 82.983269,36.038628 82.811501,35.71701 82.65593,35.387741 82.516556,35.050823 82.377174,34.713905 82.254662,34.37096 82.149017,34.021988 c -0.105644,-0.348972 -0.193916,-0.702286 -0.264808,-1.05994 -0.07089,-0.357655 -0.12407,-0.717923 -0.159523,-1.080805 -0.03545,-0.362883 -0.05301,-0.726631 -0.05268,-1.091242 -3.28e-4,-0.364611 0.01723,-0.728359 0.05269,-1.091242 0.03545,-0.362883 0.08862,-0.723152 0.159516,-1.080805 0.07089,-0.357654 0.159164,-0.710968 0.264808,-1.059938 0.105645,-0.348971 0.22815,-0.691916 0.367531,-1.028835 0.139382,-0.33692 0.294953,-0.666188 0.466721,-0.987805 0.171768,-0.321617 0.358902,-0.634029 0.561401,-0.937239 0.202492,-0.303209 0.41938,-0.59575 0.650665,-0.877624 0.23127,-0.281874 0.475815,-0.55172 0.733635,-0.809542 0.25782,-0.25782 0.527665,-0.502367 0.809548,-0.733642 0.281875,-0.231276 0.574417,-0.448162 0.877624,-0.65066 0.303208,-0.202497 0.615624,-0.389631 0.937249,-0.561401 0.321609,-0.171768 0.650878,-0.327343 0.9878,-0.466723 0.336922,-0.139379 0.679863,-0.261892 1.028839,-0.367538 0.348961,-0.105644 0.702271,-0.193913 1.059929,-0.264803 0.357658,-0.07089 0.717926,-0.124064 1.080811,-0.159517 0.362884,-0.03545 0.726631,-0.05301 1.091232,-0.05269 z"
       style="fill:url(#linearGradient6);fill-opacity:1;fill-rule:nonzero;stroke:none"
       transform="matrix(3.8104729,0,0,3.8078432,25.380709,24.836469)"
       clip-path="url(#clipPath6)" />
    <path
       id="path7"
       d="m 128.757,254.12601 c 64.832,0 60.784,-28.11501 60.784,-28.11501 l -0.072,-29.127 h -61.86899 v -8.74499 h 86.441 c 0,0 41.48601,4.705 41.48601,-60.71201 0,-65.415998 -36.20999,-63.095999 -36.20999,-63.095999 h -21.61 v 30.355004 c 0,0 1.16499,36.209995 -35.63201,36.209995 h -61.362 c 0,0 -34.474996,-0.55701 -34.474996,33.32 v 56.013 c 0,0 -5.235,33.89701 62.517996,33.89701 h 9.9e-4 z m 34.114,-19.586 c -0.36461,3.2e-4 -0.72836,-0.0172 -1.09125,-0.0527 -0.36288,-0.0355 -0.72316,-0.0886 -1.08081,-0.15952 -0.35765,-0.0709 -0.71096,-0.15916 -1.05993,-0.2648 -0.34899,-0.10563 -0.69193,-0.22815 -1.02886,-0.36753 -0.33693,-0.13938 -0.66618,-0.29496 -0.98779,-0.46673 -0.32164,-0.17176 -0.63405,-0.3589 -0.93726,-0.5614 -0.3032,-0.2025 -0.59575,-0.41938 -0.87762,-0.65066 -0.28188,-0.23128 -0.55171,-0.47582 -0.80953,-0.73363 -0.25781,-0.25781 -0.50236,-0.52766 -0.73364,-0.80954 -0.23128,-0.28187 -0.44816,-0.57443 -0.65066,-0.87764 -0.2025,-0.30321 -0.38964,-0.61561 -0.5614,-0.93722 -0.17177,-0.32161 -0.32735,-0.65087 -0.46672,-0.9878 -0.13939,-0.33693 -0.26191,-0.67987 -0.36754,-1.02885 -0.10564,-0.34899 -0.19391,-0.7023 -0.26479,-1.05995 -0.0709,-0.35765 -0.12407,-0.71791 -0.15953,-1.08081 -0.0354,-0.36289 -0.053,-0.72663 -0.0527,-1.09124 -3.7e-4,-0.36464 0.0172,-0.72841 0.0526,-1.09132 0.0354,-0.3629 0.0886,-0.72319 0.15945,-1.08087 0.0709,-0.35768 0.15911,-0.71103 0.26473,-1.06003 0.10562,-0.349 0.22812,-0.69197 0.36749,-1.0289 0.13937,-0.33694 0.29494,-0.66624 0.46669,-0.98792 0.17177,-0.32164 0.35889,-0.63407 0.56139,-0.93731 0.20248,-0.30324 0.41937,-0.59581 0.65065,-0.87772 0.23127,-0.2819 0.47583,-0.55177 0.73365,-0.80961 0.25783,-0.25786 0.52767,-0.50243 0.80954,-0.73374 0.2819,-0.23129 0.57445,-0.44819 0.87766,-0.65071 0.30321,-0.20253 0.61563,-0.38968 0.93727,-0.56146 0.32164,-0.17179 0.65093,-0.32738 0.98787,-0.46677 0.33693,-0.1394 0.67989,-0.26193 1.02888,-0.3676 0.34899,-0.10565 0.70231,-0.19392 1.05999,-0.26481 0.35768,-0.0709 0.71795,-0.12407 1.08085,-0.15955 0.36292,-0.0354 0.72669,-0.053 1.09131,-0.0527 0.36461,-3.2e-4 0.72835,0.0172 1.09123,0.0527 0.36289,0.0354 0.72316,0.0886 1.08081,0.1595 0.35766,0.0709 0.71097,0.15916 1.05994,0.2648 0.34897,0.10563 0.69191,0.22815 1.02884,0.36752 0.33693,0.13937 0.6662,0.29495 0.98781,0.46674 0.32161,0.17176 0.63402,0.35888 0.93722,0.56138 0.30321,0.2025 0.59577,0.41939 0.87764,0.65067 0.28188,0.23127 0.55172,0.47583 0.80954,0.73364 0.25783,0.25783 0.50237,0.52768 0.73365,0.80955 0.23127,0.28188 0.44816,0.57441 0.65066,0.87761 0.2025,0.30321 0.38963,0.61564 0.5614,0.93726 0.17176,0.32161 0.32732,0.65088 0.46671,0.98779 0.13939,0.33693 0.26192,0.67989 0.36755,1.02886 0.10564,0.34895 0.19391,0.70227 0.26479,1.05992 0.0709,0.35765 0.12407,0.71792 0.15954,1.08081 0.0354,0.36288 0.053,0.72664 0.0527,1.09126 3.2e-4,0.36461 -0.0172,0.72836 -0.0527,1.09123 -0.0354,0.3629 -0.0886,0.72318 -0.15951,1.08083 -0.0709,0.35765 -0.15915,0.71095 -0.26479,1.05994 -0.10566,0.34896 -0.22818,0.69191 -0.36757,1.02882 -0.13937,0.33693 -0.29493,0.6662 -0.4667,0.98781 -0.17177,0.32162 -0.35892,0.63405 -0.56142,0.93725 -0.2025,0.30321 -0.41939,0.59574 -0.65066,0.87761 -0.23128,0.28188 -0.47582,0.55173 -0.73365,0.80954 -0.25781,0.25783 -0.52765,0.50238 -0.80952,0.73366 -0.28188,0.23128 -0.57443,0.44815 -0.87764,0.65065 -0.30321,0.2025 -0.61563,0.38963 -0.93724,0.5614 -0.32161,0.17177 -0.65088,0.32733 -0.98781,0.46671 -0.33691,0.13939 -0.67986,0.2619 -1.02884,0.36754 -0.34897,0.10566 -0.70228,0.19394 -1.05994,0.26481 -0.35765,0.0709 -0.71792,0.12407 -1.08079,0.15953 -0.36289,0.0354 -0.72664,0.053 -1.09125,0.0527 v 9.9e-4 z"
       style="fill:url(#linearGradient8);fill-opacity:1;fill-rule:nonzero;stroke:none"
       transform="matrix(3.8104729,0,0,3.8078432,25.380709,24.836469)"
       clip-path="url(#clipPath8)" />
    <path
       id="path9"
       d="m 3038.03,1606.9 c -58.27,1.74 -107.8901,-20.16 -147.03,-52.23 -39.1499,-32.06 -75.96,-85.55 -87.8501,-140.16 -11.8999,-54.62 -1.8298,-127.34 16.4702,-187.55 18.2998,-60.22 56.0198,-113.9099 93.3399,-173.73 37.32,-59.82998 94.56,-184.89998 130.56,-185.22902 35.99,-0.32898 95.68,130.84301 129.3301,183.24902 33.6599,52.41 45.76,74.9399 72.5999,131.2 26.85,56.27 45.05,129.55 44.54,182.7 -0.51,53.1501 -24.71,100.44 -47.5901,136.22 -22.8699,35.78 -55.6199,60.86 -89.6799,78.45 -34.0601,17.59 -56.43,25.35 -114.69,27.08 z m -88.51,-59.2199 c 20.5901,21.25 44.73,44.6799 86.0701,44.6899 41.3398,0.02 71.0598,-17.74 107.0698,-56.45 36,-38.71 42.4402,-85.64 43.0501,-128.41 0.6101,-42.77 -21.3899,-92.49 -39.3899,-128.24 -18.01,-35.74 -55.8301,-86.89 -68.6402,-86.24 -12.8098,0.6599 -20.5898,36.99 -30.1999,66.5 -9.6001,29.51 -17.69,54.95 -27.45,86.87 -9.76,31.9101 -19.83,59.22 -27.4499,82.9101 -7.6301,23.6899 -16.1702,65.1499 -25.6301,65.1499 -9.45,0 -22.5701,-38.83 -31.1099,-65.1499 -8.5401,-26.3201 -28.98,-57.25 -32.9402,-51.3301 -3.97,5.92 1.3801,58.5801 9.1501,86.87 7.7701,28.28 16.8799,61.57 37.47,82.8301 z"
       style="fill:#347ab4;fill-opacity:1;fill-rule:evenodd;stroke:none"
       transform="matrix(0.41869917,0,0,0.41947161,-403.80912,-8.455825)"
       clip-path="url(#clipPath10)" />
    <path
       id="path11"
       d="m 1386.85,1142.85 c 15.7001,15.56 20.43,6.07 111.22,4.56 90.78,-1.52 121.35,-15.39 130.3601,13.66 9.0199,29.04 -91.0901,162.82 -149.2001,251.7 -58.12,88.89 -169.59,269.7999 -199.5,281.61 -29.91,11.82 13.42,-148.75 20.05,-210.71 6.64,-61.97 37.99,-149.44 19.76,-161.07 -18.2399,-11.64 -73.2399,1.36 -110.92,0.15 -37.6801,-1.22 -91.24,7.36 -100.74,-12.76 -9.49,-20.11 18.74,-62.74 43.76,-107.9299 25.02,-45.1901 71.7901,-110.8201 106.36,-163.2001 34.57,-52.37398 72.58,-107.96303 107.12,-151.05202 34.54,-43.08899 86.2,-113.17401 100.13,-107.48095 13.9301,5.69195 -0.26,96.01995 -16.5601,141.63897 -16.3099,45.61902 -28.5699,85.014 -44.8299,132.074 -16.25,47.06 -32.71,73.25 -17.01,88.81 z"
       style="fill:#ffca1d;fill-opacity:1;fill-rule:evenodd;stroke:none"
       transform="matrix(0.3384307,0,0,0.33879778,-313.55889,91.378037)"
       clip-path="url(#clipPath12)" />
    <g
       id="g12">
      <g
         id="g13" />
      <path
         id="path13"
         d="m 74.703712,-213.54688 v 69.51562 h 87.703128 v 35.87501 H 74.703712 v 70.890623 H 185.98497 V -2.7083354e-7 H 27.906835 V -250.62501 H 185.98497 v 37.07813 z m 185.812508,57.54687 c 3.58203,-3.58203 7.36328,-6.90625 11.34375,-9.96875 3.98828,-3.0625 8.20703,-5.66015 12.65625,-7.79687 4.44531,-2.13282 9.21094,-3.80469 14.29688,-5.01563 5.08203,-1.21875 10.6289,-1.82812 16.64062,-1.82812 9.70703,0 18.31641,1.64843 25.82813,4.9375 7.50781,3.29297 13.77344,7.91797 18.79687,13.875 5.03125,5.94922 8.84375,13.05469 11.4375,21.3125 2.60157,8.26172 3.90625,17.35937 3.90625,27.29688 V -2.7083354e-7 H 332.6256 V -113.1875 c 0,-10.85157 -2.48438,-19.25391 -7.45313,-25.20313 -4.96875,-5.95703 -12.54297,-8.9375 -22.71875,-8.9375 -7.39844,0 -14.32812,1.67969 -20.79687,5.03125 -6.46875,3.34375 -12.59375,7.90625 -18.375,13.6875 V -2.7083354e-7 H 220.46934 V -177.82813 h 26.17188 c 5.55078,0 9.19141,2.60156 10.92187,7.79687 z m 270.05079,46.62501 c 0,-5.53907 -0.78125,-10.76563 -2.34375,-15.67188 -1.5625,-4.91406 -3.90625,-9.22266 -7.03125,-12.92188 -3.11719,-3.69531 -7.07031,-6.61328 -11.85937,-8.75 -4.79297,-2.13281 -10.3711,-3.20312 -16.73438,-3.20312 -12.35547,0 -22.08984,3.52734 -29.20313,10.57812 -7.10546,7.04297 -11.64062,17.03125 -13.60937,29.96876 z m -81.64063,25.828121 c 0.69532,9.136719 2.31641,17.027345 4.85938,23.671876 2.53906,6.636719 5.89062,12.121094 10.04687,16.453126 4.15625,4.335938 9.09376,7.574219 14.81251,9.71875 5.72656,2.136719 12.05468,3.203125 18.98437,3.203125 6.9375,0 12.91406,-0.804687 17.9375,-2.421875 5.03125,-1.625 9.42188,-3.414062 13.17188,-5.375 3.75781,-1.96875 7.05078,-3.757813 9.875,-5.375 2.83203,-1.625 5.58203,-2.4375 8.25,-2.4375 3.57031,0 6.22656,1.328125 7.96875,3.984375 l 12.29687,15.609376 c -4.73046,5.542969 -10.04297,10.195313 -15.9375,13.953125 -5.89843,3.7500004 -12.05468,6.757813 -18.46875,9.0156256 -6.40625,2.2500001 -12.93359,3.83203139 -19.57812,4.7500002 -6.64844,0.9257813 -13.08985,1.390625 -19.32813,1.390625 -12.36719,0 -23.86719,-2.04687505 -34.5,-6.1406252 -10.625,-4.1015627 -19.8711,-10.1718756 -27.73438,-18.2031256 -7.85547,-8.031251 -14.03906,-17.968751 -18.54687,-29.812501 -4.5,-11.843751 -6.75,-25.566408 -6.75,-41.171877 0,-12.132811 1.96093,-23.546881 5.89062,-34.234381 3.92578,-10.6875 9.55469,-19.98437 16.89063,-27.89062 7.34375,-7.91406 16.30078,-14.1875 26.875,-18.8125 10.57031,-4.625 22.50391,-6.9375 35.79688,-6.9375 11.20703,0 21.54687,1.79297 31.01562,5.375 9.47657,3.58594 17.625,8.8125 24.4375,15.6875 6.82032,6.875 12.16407,15.3125 16.03125,25.3125 3.875,9.99219 5.8125,21.39844 5.8125,34.21875 0,6.48047 -0.69531,10.843751 -2.07812,13.093751 -1.38672,2.25 -4.04297,3.375 -7.96875,3.375 z M 641.4928,-146.98438 c 5.53906,-10.625 12.125,-18.96875 19.75,-25.03125 7.63281,-6.07032 16.64844,-9.10938 27.04688,-9.10938 8.20703,0 14.79687,1.79297 19.76562,5.375 l -2.78125,32.0625 c -0.57422,2.08594 -1.41406,3.5586 -2.51562,4.42188 -1.09375,0.86719 -2.5625,1.29687 -4.40625,1.29687 -1.74219,0 -4.3125,-0.28515 -7.71875,-0.85937 -3.40625,-0.58203 -6.73047,-0.875 -9.96875,-0.875 -4.74219,0 -8.96094,0.69531 -12.65626,2.07812 -3.69921,1.38672 -7.02343,3.38282 -9.96875,5.98438 -2.9375,2.59375 -5.53906,5.74219 -7.79687,9.4375 -2.25,3.69922 -4.35938,7.91797 -6.32813,12.65625 V -2.7083354e-7 h -42.8125 V -177.82813 h 25.14063 c 4.38281,0 7.4414,0.78125 9.17187,2.34375 1.73828,1.55468 2.89844,4.35156 3.48438,8.39062 z m 153.91407,53.734376 c 5.32031,0 9.94531,-0.71875 13.875,-2.15625 3.92578,-1.445313 7.1875,-3.441407 9.78125,-5.984376 2.60156,-2.53906 4.5664,-5.60156 5.89062,-9.1875 1.33203,-3.58203 2,-7.51563 2,-11.79688 0,-8.78125 -2.63281,-15.73828 -7.89062,-20.875 -5.25,-5.14453 -13.13672,-7.71875 -23.65625,-7.71875 -10.51172,0 -18.39844,2.57422 -23.65625,7.71875 -5.26172,5.13672 -7.89063,12.09375 -7.89063,20.875 0,4.16797 0.66016,8.04297 1.98438,11.62501 1.33203,3.57421 3.30078,6.66406 5.90625,9.26562 2.60156,2.605469 5.89453,4.632813 9.875,6.078126 3.98828,1.4375 8.58203,2.15625 13.78125,2.15625 z M 843.76624,7.9687501 c 0,-3.4687502 -1.04296,-6.2968753 -3.125,-8.48437539 -2.07421,-2.19531261 -4.90234,-3.89843771 -8.48437,-5.10937521 -3.58594,-1.2187501 -7.77735,-2.1132813 -12.57813,-2.6875001 -4.79297,-0.5820313 -9.875,-1.0156251 -15.25,-1.2968751 -5.36719,-0.2890625 -10.91406,-0.5507813 -16.64062,-0.7812503 -5.71875,-0.238281 -11.29297,-0.703125 -16.71875,-1.390625 -4.74219,2.6562503 -8.58594,5.7773442 -11.53125,9.3593756 -2.9375,3.5820314 -4.40625,7.7382816 -4.40625,12.4687504 0,3.125 0.77343,6.039063 2.32812,8.750001 1.5625,2.71875 4.04688,5.054687 7.45313,7.015625 3.41406,1.96875 7.83593,3.5 13.26562,4.59375 5.42578,1.101563 12.07031,1.65625 19.9375,1.65625 7.96875,0 14.83594,-0.609375 20.60938,-1.828125 5.78125,-1.210938 10.54687,-2.882813 14.29687,-5.015625 3.75782,-2.136719 6.50391,-4.679688 8.23438,-7.625001 1.73828,-2.949218 2.60937,-6.15625 2.60937,-9.6249999 z M 886.40687,-171.76563 v 15.9375 c 0,5.08594 -3.0625,8.20312 -9.1875,9.35937 l -15.9375,2.95313 c 2.42578,6.125 3.64063,12.82812 3.64063,20.10937 0,8.78125 -1.76563,16.72657 -5.29688,23.828131 -3.52344,7.105469 -8.40234,13.140625 -14.64063,18.109375 -6.24218,4.968751 -13.60937,8.812501 -22.10937,11.531251 -8.49219,2.71875 -17.64844,4.078125 -27.46875,4.078125 -3.46875,0 -6.82422,-0.171875 -10.0625,-0.515625 -3.23047,-0.351563 -6.40235,-0.816406 -9.51563,-1.390625 -5.55469,3.34375 -8.32812,7.101563 -8.32812,11.265625 0,3.585938 1.64453,6.214844 4.9375,7.890626 3.30078,1.667969 7.66406,2.851562 13.09375,3.546875 5.42578,0.6875 11.60156,1.121094 18.53125,1.296875 6.9375,0.179687 14.04687,0.558594 21.32812,1.140625 7.28125,0.574219 14.38282,1.585938 21.3125,3.03125 6.9375,1.4375 13.11719,3.71875 18.54688,6.84375 5.4375,3.117188 9.80078,7.359376 13.09375,12.734376 3.28906,5.375 4.9375,12.2773442 4.9375,20.70312576 0,7.86328154 -1.9375,15.49218824 -5.8125,22.89062624 -3.86719,7.394531 -9.46875,13.976563 -16.8125,19.750001 -7.33594,5.78125 -16.34375,10.429687 -27.03125,13.953125 -10.6875,3.53125 -22.85156,5.296875 -36.48438,5.296875 -13.40625,0 -25.07812,-1.304687 -35.01562,-3.90625 -9.9375,-2.605469 -18.19922,-6.074219 -24.78126,-10.40625 -6.58593,-4.335938 -11.49609,-9.335938 -14.73437,-15.000001 -3.23047,-5.65625 -4.84375,-11.546875 -4.84375,-17.671876 0,-8.3125 2.50781,-15.27343776 7.53125,-20.8750005 5.03125,-5.6015625 11.9375,-10.0820315 20.71875,-13.4375005 -4.74219,-2.425781 -8.5,-5.660157 -11.28125,-9.703125 -2.77344,-4.050782 -4.15625,-9.367188 -4.15625,-15.953126 0,-2.65625 0.48828,-5.398438 1.46875,-8.234375 0.98828,-2.832032 2.4375,-5.632813 4.34375,-8.406251 1.90625,-2.769531 4.30078,-5.394531 7.1875,-7.875 2.89453,-2.488281 6.30469,-4.71875 10.23438,-6.6875 -9.01172,-4.843751 -16.08985,-11.304688 -21.23438,-19.390626 -5.14844,-8.093746 -7.71875,-17.570316 -7.71875,-28.437506 0,-8.78125 1.75781,-16.72265 5.28125,-23.82812 3.53125,-7.11328 8.44141,-13.17969 14.73438,-18.20313 6.30078,-5.03125 13.7539,-8.875 22.35937,-11.53125 8.61328,-2.65625 18.00391,-3.98437 28.17188,-3.98437 7.625,0 14.78515,0.78125 21.48437,2.34375 6.70703,1.55468 12.83594,3.83593 18.39063,6.84375 z m 188.58593,-6.0625 -96.89061,226.703132 c -1.27344,3.007812 -2.91797,5.289062 -4.9375,6.84375 -2.02344,1.5625 -5.11719,2.34375 -9.28125,2.34375 h -31.89063 l 33.28125,-71.406253 -71.92188,-164.484379 h 37.60938 c 3.34375,0 5.96875,0.80859 7.875,2.42187 1.91406,1.61719 3.33203,3.46485 4.25,5.54688 l 37.79688,92.203126 c 1.26953,3.125001 2.33594,6.250001 3.20312,9.375001 0.86328,3.117188 1.70313,6.289063 2.51563,9.515625 1.03125,-3.226562 2.0664,-6.429687 3.10937,-9.609375 1.03907,-3.175782 2.19532,-6.328125 3.46875,-9.453126 l 35.70309,-92.031251 c 0.9258,-2.3125 2.4571,-4.21875 4.5938,-5.71875 2.1328,-1.5 4.5351,-2.25 7.2031,-2.25 z m 244.7422,83.187501 -30.5,-83.375001 c -1.5117,-3.6875 -3.0742,-8.07032 -4.6875,-13.15625 -1.6172,-5.09375 -3.2305,-10.58203 -4.8437,-16.46875 -1.5118,5.88672 -3.0743,11.40234 -4.6875,16.54687 -1.6172,5.14844 -3.1719,9.625 -4.6719,13.4375 l -30.3438,83.015631 z M 1402.0631,-2.7083354e-7 h -36.0468 c -4.043,0 -7.336,-1.00781252916646 -9.875,-3.03125012916646 -2.543,-2.0195313 -4.4532,-4.5351564 -5.7344,-7.5468756 l -18.7188,-51.125002 h -103.8125 l -18.7187,51.125002 c -0.9297,2.6562504 -2.7188,5.085938 -5.375,7.2812506 -2.6563,2.1992188 -5.9492,3.29687512916646 -9.875,3.29687512916646 h -36.4063 L 1256.1256,-250.62501 H 1303.61 Z M 1461.3483,-156.00001 c 3.582,-3.58203 7.3633,-6.90625 11.3438,-9.96875 3.9882,-3.0625 8.207,-5.66015 12.6562,-7.79687 4.4453,-2.13282 9.2109,-3.80469 14.2969,-5.01563 5.082,-1.21875 10.6289,-1.82812 16.6406,-1.82812 9.707,0 18.3164,1.64843 25.8281,4.9375 7.5078,3.29297 13.7735,7.91797 18.7969,13.875 5.0313,5.94922 8.8438,13.05469 11.4375,21.3125 2.6016,8.26172 3.9063,17.35937 3.9063,27.29688 V -2.7083354e-7 h -42.7969 V -113.1875 c 0,-10.85157 -2.4844,-19.25391 -7.4531,-25.20313 -4.9688,-5.95703 -12.543,-8.9375 -22.7188,-8.9375 -7.3984,0 -14.3281,1.67969 -20.7969,5.03125 -6.4687,3.34375 -12.5937,7.90625 -18.375,13.6875 V -2.7083354e-7 h -42.8125 V -177.82813 h 26.1719 c 5.5508,0 9.1914,2.60156 10.9219,7.79687 z m 249.4258,80.078132 c -12.3672,0.585937 -22.7656,1.65625 -31.2031,3.21875 -8.4375,1.554687 -15.1993,3.542969 -20.2813,5.96875 -5.0859,2.429688 -8.7265,5.261719 -10.9219,8.5 -2.1875,3.230469 -3.2812,6.750001 -3.2812,10.562501 0,7.511719 2.2226,12.886719 6.6719,16.125 4.4453,3.242188 10.25,4.859376 17.4062,4.859376 8.7891,0 16.3906,-1.585938 22.7969,-4.765626 6.4141,-3.175781 12.6875,-8.003906 18.8125,-14.484375 z m -98.1094,-77.125002 c 20.457,-18.71875 45.0703,-28.07813 73.8438,-28.07813 10.3945,0 19.6914,1.70313 27.8906,5.10938 8.207,3.40625 15.1406,8.14844 20.7969,14.21875 5.664,6.0625 9.9726,13.3125 12.9218,21.75 2.9454,8.4375 4.4219,17.68359 4.4219,27.73438 V -2.7083354e-7 h -19.4062 c -4.0547,0 -7.1797,-0.60156252916646 -9.375,-1.81250002916646 -2.1875,-1.2187501 -3.918,-3.6757814 -5.1875,-7.3750004 l -3.8125,-12.8281253 c -4.5118,4.042969 -8.9063,7.59375 -13.1875,10.65625 -4.2735,3.0625004 -8.7188,5.6367192 -13.3438,7.7187506 -4.6172,2.0859376 -9.5547,3.67187513 -14.8125,4.7656252 -5.2617,1.09375 -11.0703,1.640625 -17.4219,1.640625 -7.5117,0 -14.4453,-1.0117187 -20.7968,-3.03125008 -6.3555,-2.01953132 -11.8438,-5.05078142 -16.4688,-9.09375042 -4.6172,-4.0390623 -8.1953,-9.0664063 -10.7344,-15.0781253 -2.5429,-6.007813 -3.8125,-13.000001 -3.8125,-20.968751 0,-4.507813 0.75,-8.988282 2.25,-13.437501 1.5,-4.445312 3.9532,-8.691406 7.3594,-12.734375 3.4063,-4.050782 7.8203,-7.863282 13.25,-11.437501 5.4375,-3.582031 12.1133,-6.703125 20.0313,-9.359375 7.914,-2.664063 17.1289,-4.832032 27.6406,-6.5 10.5195,-1.675786 22.5391,-2.691406 36.0625,-3.046876 v -10.39062 c 0,-11.90626 -2.543,-20.71876 -7.625,-26.43751 -5.0859,-5.71875 -12.4219,-8.57812 -22.0156,-8.57812 -6.9375,0 -12.6875,0.8125 -17.25,2.4375 -4.5625,1.61719 -8.5782,3.43359 -12.0469,5.45312 -3.4688,2.02344 -6.6211,3.83985 -9.4531,5.45313 -2.8243,1.61719 -5.9688,2.42187 -9.4375,2.42187 -3,0 -5.543,-0.77343 -7.625,-2.32812 -2.086,-1.5625 -3.7618,-3.38281 -5.0313,-5.46875 z m 223.4297,-104.51563 V -2.7083354e-7 h -42.8125 V -257.56251 Z m 204.3477,79.73438 -96.8907,226.703132 c -1.2734,3.007812 -2.9179,5.289062 -4.9375,6.84375 -2.0234,1.5625 -5.1171,2.34375 -9.2812,2.34375 h -31.8906 l 33.2812,-71.406253 -71.9219,-164.484379 h 37.6094 c 3.3438,0 5.9688,0.80859 7.875,2.42187 1.9141,1.61719 3.3321,3.46485 4.25,5.54688 l 37.7969,92.203126 c 1.2695,3.125001 2.3359,6.250001 3.2031,9.375001 0.8633,3.117188 1.7031,6.289063 2.5156,9.515625 1.0313,-3.226562 2.0665,-6.429687 3.1094,-9.609375 1.0391,-3.175782 2.1953,-6.328125 3.4688,-9.453126 l 35.7031,-92.031251 c 0.9258,-2.3125 2.457,-4.21875 4.5937,-5.71875 2.1329,-1.5 4.5352,-2.25 7.2032,-2.25 z m 129.832,34.65625 c -1.1562,1.85547 -2.3711,3.15625 -3.6406,3.90625 -1.2735,0.75 -2.8906,1.125 -4.8594,1.125 -2.0859,0 -4.3086,-0.57813 -6.6719,-1.73438 -2.3672,-1.15625 -5.1093,-2.45312 -8.2343,-3.89062 -3.125,-1.44531 -6.6836,-2.75 -10.6719,-3.90625 -3.9805,-1.15625 -8.6836,-1.73438 -14.1094,-1.73438 -8.4375,0 -15.0586,1.79297 -19.8594,5.375 -4.7929,3.58594 -7.1875,8.26172 -7.1875,14.03125 0,3.8125 1.2383,7.02344 3.7188,9.625 2.4883,2.60547 5.7851,4.89063 9.8906,6.85938 4.1016,1.96094 8.7539,3.71875 13.9531,5.28125 5.1953,1.55469 10.4844,3.25781 15.8594,5.10938 5.375,1.84375 10.6602,3.953121 15.8594,6.328121 5.1953,2.367187 9.8476,5.371094 13.9531,9.015625 4.1016,3.636719 7.3945,7.996094 9.875,13.078126 2.4883,5.085937 3.7344,11.210938 3.7344,18.375 0,8.554688 -1.5313,16.437501 -4.5938,23.656251 -3.0625,7.218751 -7.6015,13.460938 -13.6093,18.718751 -6.0118,5.2617191 -13.4375,9.367188 -22.2813,12.3125007 -8.8359,2.9375001 -19.0273,4.4062501 -30.5781,4.4062501 -6.125,0 -12.1094,-0.546875 -17.9531,-1.640625 -5.836,-1.09375007 -11.4375,-2.6171876 -16.8125,-4.5781252 -5.3672,-1.9687501 -10.336,-4.2812502 -14.9063,-6.9375006 -4.5625,-2.664062 -8.5742,-5.554687 -12.0312,-8.671875 l 9.875,-16.296876 c 1.2695,-1.96875 2.7695,-3.46875 4.5,-4.5 1.7382,-1.039062 3.9375,-1.5625 6.5937,-1.5625 2.6563,0 5.1641,0.75 7.5313,2.25 2.375,1.5 5.1171,3.121094 8.2343,4.859375 3.125,1.730469 6.7969,3.34375 11.0157,4.843751 4.2187,1.5 9.5625,2.25 16.0312,2.25 5.082,0 9.4414,-0.601563 13.0781,-1.8125 3.6446,-1.218751 6.6485,-2.804688 9.0157,-4.765626 2.375,-1.96875 4.1093,-4.25 5.2031,-6.84375 1.0937,-2.601563 1.6406,-5.289063 1.6406,-8.0625 0,-4.15625 -1.2461,-7.562501 -3.7344,-10.218751 -2.4804,-2.664062 -5.7734,-4.976562 -9.875,-6.9375 -4.0937,-1.96875 -8.7734,-3.726563 -14.0312,-5.28125 -5.2617,-1.5625 -10.6367,-3.265625 -16.125,-5.109375 -5.4922,-1.851563 -10.8672,-4.019532 -16.125,-6.500001 -5.25,-2.488281 -9.9297,-5.640625 -14.0313,-9.453125 -4.1054,-3.820313 -7.4023,-8.503911 -9.8906,-14.046871 -2.4805,-5.53907 -3.7187,-12.24219 -3.7187,-20.10938 0,-7.28125 1.4414,-14.21094 4.3281,-20.79688 2.8945,-6.58203 7.1445,-12.32812 12.75,-17.23437 5.6015,-4.91406 12.5937,-8.84766 20.9687,-11.79688 8.3828,-2.94531 18.0625,-4.42187 29.0313,-4.42187 12.25,0 23.3984,2.02734 33.4531,6.07812 10.0508,4.04297 18.4297,9.35547 25.1406,15.9375 z m 88.2188,-34.65625 V -2.7083354e-7 h -42.9844 V -177.82813 Z m 5.8906,-51.82813 c 0,3.69922 -0.75,7.16797 -2.25,10.40625 -1.5,3.23047 -3.4961,6.05859 -5.9844,8.48438 -2.4805,2.42968 -5.3984,4.36718 -8.75,5.8125 -3.3437,1.4375 -6.9297,2.15625 -10.75,2.15625 -3.6992,0 -7.1953,-0.71875 -10.4844,-2.15625 -3.2929,-1.44532 -6.1523,-3.38282 -8.5781,-5.8125 -2.4297,-2.42579 -4.3672,-5.25391 -5.8125,-8.48438 -1.4375,-3.23828 -2.1562,-6.70703 -2.1562,-10.40625 0,-3.8125 0.7187,-7.39453 2.1562,-10.75 1.4453,-3.35156 3.3828,-6.24219 5.8125,-8.67188 2.4258,-2.42578 5.2852,-4.35937 8.5781,-5.79687 3.2891,-1.44531 6.7852,-2.17188 10.4844,-2.17188 3.8203,0 7.4063,0.72657 10.75,2.17188 3.3516,1.4375 6.2695,3.37109 8.75,5.79687 2.4883,2.42969 4.4844,5.32032 5.9844,8.67188 1.5,3.35547 2.25,6.9375 2.25,10.75 z m 146.3008,86.48438 c -1.1563,1.85547 -2.3711,3.15625 -3.6406,3.90625 -1.2735,0.75 -2.8907,1.125 -4.8594,1.125 -2.086,0 -4.3086,-0.57813 -6.6719,-1.73438 -2.3672,-1.15625 -5.1094,-2.45312 -8.2344,-3.89062 -3.125,-1.44531 -6.6836,-2.75 -10.6718,-3.90625 -3.9805,-1.15625 -8.6836,-1.73438 -14.1094,-1.73438 -8.4375,0 -15.0586,1.79297 -19.8594,5.375 -4.793,3.58594 -7.1875,8.26172 -7.1875,14.03125 0,3.8125 1.2383,7.02344 3.7188,9.625 2.4882,2.60547 5.7851,4.89063 9.8906,6.85938 4.1015,1.96094 8.7539,3.71875 13.9531,5.28125 5.1953,1.55469 10.4844,3.25781 15.8594,5.10938 5.375,1.84375 10.6601,3.953121 15.8594,6.328121 5.1953,2.367187 9.8476,5.371094 13.9531,9.015625 4.1015,3.636719 7.3945,7.996094 9.875,13.078126 2.4883,5.085937 3.7344,11.210938 3.7344,18.375 0,8.554688 -1.5313,16.437501 -4.5938,23.656251 -3.0625,7.218751 -7.6016,13.460938 -13.6094,18.718751 -6.0117,5.2617191 -13.4375,9.367188 -22.2812,12.3125007 -8.836,2.9375001 -19.0274,4.4062501 -30.5781,4.4062501 -6.125,0 -12.1094,-0.546875 -17.9532,-1.640625 -5.8359,-1.09375007 -11.4375,-2.6171876 -16.8125,-4.5781252 -5.3672,-1.9687501 -10.3359,-4.2812502 -14.9062,-6.9375006 -4.5625,-2.664062 -8.5742,-5.554687 -12.0313,-8.671875 l 9.875,-16.296876 c 1.2696,-1.96875 2.7696,-3.46875 4.5,-4.5 1.7383,-1.039062 3.9375,-1.5625 6.5938,-1.5625 2.6562,0 5.164,0.75 7.5312,2.25 2.375,1.5 5.1172,3.121094 8.2344,4.859375 3.125,1.730469 6.7969,3.34375 11.0156,4.843751 4.2188,1.5 9.5625,2.25 16.0313,2.25 5.082,0 9.4414,-0.601563 13.0781,-1.8125 3.6445,-1.218751 6.6484,-2.804688 9.0156,-4.765626 2.375,-1.96875 4.1094,-4.25 5.2032,-6.84375 1.0937,-2.601563 1.6406,-5.289063 1.6406,-8.0625 0,-4.15625 -1.2461,-7.562501 -3.7344,-10.218751 -2.4805,-2.664062 -5.7734,-4.976562 -9.875,-6.9375 -4.0937,-1.96875 -8.7734,-3.726563 -14.0312,-5.28125 -5.2618,-1.5625 -10.6368,-3.265625 -16.125,-5.109375 -5.4922,-1.851563 -10.8672,-4.019532 -16.1251,-6.500001 -5.25,-2.488281 -9.9296,-5.640625 -14.0312,-9.453125 -4.1055,-3.820313 -7.4023,-8.503911 -9.8906,-14.046871 -2.4805,-5.53907 -3.7188,-12.24219 -3.7188,-20.10938 0,-7.28125 1.4414,-14.21094 4.3281,-20.79688 2.8946,-6.58203 7.1446,-12.32812 12.75,-17.23437 5.6016,-4.91406 12.5938,-8.84766 20.9688,-11.79688 8.3828,-2.94531 18.0625,-4.42187 29.0313,-4.42187 12.25,0 23.3984,2.02734 33.4531,6.07812 10.0508,4.04297 18.4297,9.35547 25.1406,15.9375 z m 309.9062,-69.15625 h -75.5781 V -2.7083354e-7 h -46.625 V -212.32813 h -75.5625 v -38.29688 h 197.7656 z m 104.8711,31.71875 c 13.1641,0 25.1485,2.14062 35.9532,6.42187 10.8125,4.27344 20.0547,10.33985 27.7343,18.20313 7.6875,7.85547 13.6094,17.44531 17.7657,28.76562 4.164,11.32422 6.25,23.97657 6.25,37.953131 0,14.093751 -2.086,26.808595 -6.25,38.140627 -4.1563,11.324219 -10.0782,20.976563 -17.7657,28.953126 -7.6796,7.96875 -16.9218,14.0898441 -27.7343,18.3593756 -10.8047,4.2695314 -22.7891,6.4062502 -35.9532,6.4062502 -13.2929,0 -25.3711,-2.1367188 -36.2343,-6.4062502 -10.8672,-4.2695315 -20.1407,-10.3906256 -27.8282,-18.3593756 -7.6797,-7.976563 -13.625,-17.628907 -17.8437,-28.953126 -4.2188,-11.332032 -6.3281,-24.046876 -6.3281,-38.140627 0,-13.976561 2.1093,-26.628911 6.3281,-37.953131 4.2187,-11.32031 10.164,-20.91015 17.8437,-28.76562 7.6875,-7.86328 16.961,-13.92969 27.8282,-18.20313 10.8632,-4.28125 22.9414,-6.42187 36.2343,-6.42187 z m 0,150.281253 c 14.7813,0 25.7227,-4.96875 32.8282,-14.90625 7.1132,-9.937501 10.6718,-24.500001 10.6718,-43.687502 0,-19.175781 -3.5586,-33.789061 -10.6718,-43.843751 -7.1055,-10.05078 -18.0469,-15.07813 -32.8282,-15.07813 -15.0312,0 -26.1562,5.0586 -33.375,15.17188 -7.2187,10.10547 -10.8281,24.6875 -10.8281,43.750001 0,19.07422 3.6094,33.609376 10.8281,43.609377 7.2188,9.992188 18.3438,14.984375 33.375,14.984375 z m 199.1602,-150.281253 c 13.1641,0 25.1484,2.14062 35.9531,6.42187 10.8125,4.27344 20.0547,10.33985 27.7344,18.20313 7.6875,7.85547 13.6094,17.44531 17.7656,28.76562 4.1641,11.32422 6.25,23.97657 6.25,37.953131 0,14.093751 -2.0859,26.808595 -6.25,38.140627 -4.1562,11.324219 -10.0781,20.976563 -17.7656,28.953126 -7.6797,7.96875 -16.9219,14.0898441 -27.7344,18.3593756 -10.8047,4.2695314 -22.789,6.4062502 -35.9531,6.4062502 -13.293,0 -25.3711,-2.1367188 -36.2344,-6.4062502 -10.8672,-4.2695315 -20.1406,-10.3906256 -27.8281,-18.3593756 -7.6797,-7.976563 -13.625,-17.628907 -17.8437,-28.953126 -4.2188,-11.332032 -6.3282,-24.046876 -6.3282,-38.140627 0,-13.976561 2.1094,-26.628911 6.3282,-37.953131 4.2187,-11.32031 10.164,-20.91015 17.8437,-28.76562 7.6875,-7.86328 16.9609,-13.92969 27.8281,-18.20313 10.8633,-4.28125 22.9414,-6.42187 36.2344,-6.42187 z m 0,150.281253 c 14.7813,0 25.7227,-4.96875 32.8281,-14.90625 7.1133,-9.937501 10.6719,-24.500001 10.6719,-43.687502 0,-19.175781 -3.5586,-33.789061 -10.6719,-43.843751 -7.1054,-10.05078 -18.0468,-15.07813 -32.8281,-15.07813 -15.0312,0 -26.1562,5.0586 -33.375,15.17188 -7.2187,10.10547 -10.8281,24.6875 -10.8281,43.750001 0,19.07422 3.6094,33.609376 10.8281,43.609377 7.2188,9.992188 18.3438,14.984375 33.375,14.984375 z M 3188.4187,-257.56251 V -2.7083354e-7 h -42.8125 V -257.56251 Z m 85.6133,211.453133 c 4.8515,5.898438 10.1406,10.058594 15.8593,12.484375 5.7188,2.429688 11.7579,3.640625 18.125,3.640625 6.5821,0 12.5,-1.179687 17.75,-3.546875 5.2579,-2.375 9.7383,-6.070312 13.4375,-11.09375 3.6954,-5.03125 6.5235,-11.445313 8.4844,-19.250001 1.9688,-7.800782 2.9531,-17.128907 2.9531,-27.984376 0,-19.531251 -3.2343,-33.656251 -9.7031,-42.375001 -6.4687,-8.72656 -15.7734,-13.09375 -27.9062,-13.09375 -8.1992,0 -15.3594,1.88281 -21.4844,5.64062 -6.125,3.75 -11.9648,9.03125 -17.5156,15.84375 z m 0,-109.890633 c 7.164,-7.50781 15.1093,-13.48828 23.8281,-17.9375 8.7266,-4.44531 18.6953,-6.67187 29.9062,-6.67187 10.2813,0 19.5508,2.02734 27.8125,6.07812 8.2696,4.04297 15.3204,9.85157 21.1563,17.42188 5.832,7.5625 10.3047,16.71875 13.4219,27.46875 3.125,10.74219 4.6875,22.8125 4.6875,36.218751 0,14.4375 -1.793,27.554688 -5.375,39.343751 -3.586,11.781251 -8.6992,21.867189 -15.3438,30.250002 -6.6367,8.375 -14.6367,14.8750004 -24,19.5000005 -9.3554,4.61328149 -19.7578,6.9218753 -31.2031,6.9218753 -5.543,0 -10.5703,-0.546875 -15.0781,-1.64062503 -4.5,-1.09375005 -8.6563,-2.62500007 -12.4688,-4.59375017 -3.8125,-1.9687501 -7.3125,-4.3632815 -10.5,-7.1875006 -3.1797,-2.832031 -6.2109,-5.984375 -9.0937,-9.453125 l -1.9063,11.9687504 c -0.6875,3.0000001 -1.8711,5.1367189 -3.5469,6.4062502 -1.6796,1.2734376 -3.9609,1.90625012916647 -6.8437,1.90625012916647 h -28.2656 V -257.56251 h 42.8125 z m 232.6211,-24.60937 c 13.164,0 25.1484,2.14062 35.9531,6.42187 10.8125,4.27344 20.0547,10.33985 27.7344,18.20313 7.6875,7.85547 13.6094,17.44531 17.7656,28.76562 4.1641,11.32422 6.25,23.97657 6.25,37.953131 0,14.093751 -2.0859,26.808595 -6.25,38.140627 -4.1562,11.324219 -10.0781,20.976563 -17.7656,28.953126 -7.6797,7.96875 -16.9219,14.0898441 -27.7344,18.3593756 -10.8047,4.2695314 -22.7891,6.4062502 -35.9531,6.4062502 -13.293,0 -25.3711,-2.1367188 -36.2344,-6.4062502 -10.8672,-4.2695315 -20.1406,-10.3906256 -27.8281,-18.3593756 -7.6797,-7.976563 -13.625,-17.628907 -17.8438,-28.953126 -4.2187,-11.332032 -6.3281,-24.046876 -6.3281,-38.140627 0,-13.976561 2.1094,-26.628911 6.3281,-37.953131 4.2188,-11.32031 10.1641,-20.91015 17.8438,-28.76562 7.6875,-7.86328 16.9609,-13.92969 27.8281,-18.20313 10.8633,-4.28125 22.9414,-6.42187 36.2344,-6.42187 z m 0,150.281253 c 14.7812,0 25.7226,-4.96875 32.8281,-14.90625 7.1133,-9.937501 10.6719,-24.500001 10.6719,-43.687502 0,-19.175781 -3.5586,-33.789061 -10.6719,-43.843751 -7.1055,-10.05078 -18.0469,-15.07813 -32.8281,-15.07813 -15.0313,0 -26.1563,5.0586 -33.375,15.17188 -7.2188,10.10547 -10.8282,24.6875 -10.8282,43.750001 0,19.07422 3.6094,33.609376 10.8282,43.609377 7.2187,9.992188 18.3437,14.984375 33.375,14.984375 z M 3785.8875,-2.7083354e-7 h -41.2657 c -3.1172,0 -5.625,-0.80468752916646 -7.5312,-2.42187512916646 -1.9063,-1.625 -3.4961,-3.4726564 -4.7656,-5.5468752 l -37.6094,-61.8750024 c -0.586,1.960937 -1.25,3.808594 -2,5.546875 -0.75,1.730469 -1.5899,3.34375 -2.5156,4.84375 l -33.2813,51.4843774 c -1.2734,1.9609376 -2.8359,3.7773439 -4.6875,5.4531252 -1.8437,1.67968759 -4.1523,2.51562512916647 -6.9219,2.51562512916647 h -38.2968 l 61,-91.68750372916647 -58.5782,-86.140626 h 41.25 c 3.125,0 5.4375,0.43359 6.9375,1.29687 1.5,0.86719 2.8282,2.28125 3.9844,4.25 l 37.2656,59.26563 c 1.2696,-3.92578 3.0625,-7.79688 5.375,-11.60938 l 29.9844,-46.79687 c 2.5391,-4.26953 5.832,-6.40625 9.875,-6.40625 h 39.3438 l -58.4063,84.234376 z m 0,0"
         style="fill:#347ab4;fill-opacity:1;fill-rule:nonzero;stroke:none"
         aria-label="Energy Analysis Toolbox"
         transform="translate(1107.6088,644.06001)" />
    </g>
  </g>
</svg>
